<svg width="512" height="160" viewBox="0 0 512 160" fill="none" xmlns="http://www.w3.org/2000/svg" role="img" aria-labelledby="title desc">
  <title id="title">EMPHZ logo</title>
  <desc id="desc">EMPHZ wordmark with Honest Direct Real tagline</desc>
  <defs>
    <linearGradient id="bg" x1="32" y1="20" x2="480" y2="160" gradientUnits="userSpaceOnUse">
      <stop stop-color="#00101B"/>
      <stop offset="1" stop-color="#01243A"/>
    </linearGradient>
    <linearGradient id="metal" x1="66" y1="52" x2="66" y2="120" gradientUnits="userSpaceOnUse">
      <stop stop-color="#F5F7FA"/>
      <stop offset="1" stop-color="#B8C0CC"/>
    </linearGradient>
    <linearGradient id="teal" x1="250" y1="40" x2="250" y2="132" gradientUnits="userSpaceOnUse">
      <stop stop-color="#11AFC3"/>
      <stop offset="1" stop-color="#0B5D74"/>
    </linearGradient>
  </defs>

  <rect width="512" height="160" rx="18" fill="url(#bg)"/>

  <g fill="url(#metal)">
    <path d="M30 50H98V62H44V76H90V88H44V102H98V114H30V50Z"/>
    <path d="M110 50H132L160 87L188 50H210V114H196V74L165 114H155L124 74V114H110V50Z"/>
    <path d="M292 50H307V77H338V50H353V114H338V89H307V114H292V50Z"/>
    <path d="M367 50H439V62L388 102H439V114H367V102L418 62H367V50Z"/>
  </g>

  <path fill="url(#teal)" d="M223 42H265C279 42 290 54 290 69C290 82 282 91 271 94L288 114H269L253 95H238V114H223V42ZM238 54V83H263C271 83 276 77 276 69C276 60 270 54 263 54H238Z"/>
  <path fill="url(#teal)" d="M224 42L251 72H237L210 42H224Z"/>
  <path fill="url(#teal)" d="M224 114L251 84H237L210 114H224Z"/>

  <text x="256" y="140" text-anchor="middle" font-family="Inter, Arial, sans-serif" font-size="14" font-weight="500" fill="#C9D2DD" letter-spacing="3">HONEST • DIRECT • REAL</text>
</svg>
